<svg width="866" height="898" viewBox="0 0 866 898" fill="none" xmlns="http://www.w3.org/2000/svg">
<g clip-path="url(#clip0_1511_2221)">
<rect x="0.821777" y="675.326" width="592.593" height="222.674" fill="#35A9C0"/>
<path d="M187.203 897.997C173.821 781.184 57.3732 754.414 0.821777 755.631V897.997H187.203Z" fill="#9422D0"/>
<rect x="0.821777" y="222.677" width="864.996" height="299.333" fill="#140091"/>
<rect x="0.821777" y="423.447" width="219.834" height="7.30082" fill="#01B6DA"/>
<rect x="0.821777" y="438.051" width="229.392" height="7.30082" fill="#4C35DE"/>
<rect x="0.821777" y="452.652" width="219.834" height="7.30082" fill="#01B6DA"/>
<rect x="0.821777" y="467.254" width="229.392" height="7.30082" fill="#4C35DE"/>
<rect x="594" y="675" width="272" height="223" fill="#332497"/>
<rect x="0.821777" y="522.01" width="864.996" height="156.967" fill="#826EFF"/>
<rect x="0.640625" width="277.543" height="223" fill="#725CFF"/>
<rect x="278.185" width="301.108" height="223" fill="#634BFF"/>
<path d="M0.821777 830.469C29.4957 831.077 87.3216 845.435 89.2332 898.001M0.821777 863.322C15.1588 863.931 44.3106 871.718 46.2222 898.001" stroke="url(#paint0_linear_1511_2221)" stroke-width="1.8252"/>
<path d="M0.821777 713.655H108.349C125.076 713.655 156.139 697.959 156.139 678.977" stroke="#4C35DE" stroke-width="1.8252"/>
<path d="M0.821777 726.432H119.929C143.437 726.432 172.866 704.529 172.866 678.977" stroke="#4C35DE" stroke-width="1.8252"/>
<path d="M0.821777 737.383H134.409C158.697 737.383 194.371 699.054 189.592 678.977" stroke="#4C35DE" stroke-width="1.8252"/>
<path d="M866 584H682.075C648.635 587.133 593.691 600.92 593.693 678" stroke="black" stroke-width="3.6504"/>
<path d="M610.142 321.238C591.026 311.017 581.468 251.272 579.078 222.677H865.818V321.238H610.142Z" fill="#4C35DE"/>
<path d="M641.205 357.742C637.382 356.282 626.868 344.965 622.089 339.49H865.818V357.742C792.54 358.35 645.028 359.202 641.205 357.742Z" fill="#4C35DE"/>
<path d="M681.826 390.596C676.092 389.135 665.1 377.819 660.321 372.344H865.818V390.596H681.826Z" fill="#4C35DE"/>
<path d="M829.975 434.4C791.743 435.861 737.581 416.757 715.279 407.022L712.89 405.197H865.818V434.4H829.975Z" fill="#4C35DE"/>
<path d="M767.848 522.01L865.818 441.701V522.01H767.848Z" fill="#4C35DE"/>
<path d="M392.698 308.46C377.456 308.46 368.803 293.858 368.803 288.383C368.803 302.984 354.466 308.46 344.908 308.46C359.245 308.46 368.803 321.236 368.803 330.363C368.803 319.411 383.14 308.46 392.698 308.46Z" fill="#A94ED8"/>
<path d="M371.192 222.677C384.733 223.285 412.77 231.438 416.593 259.181C401.459 257.964 371.192 248.96 371.192 222.677Z" fill="#725CFF"/>
<path d="M371.192 255.53C384.733 256.139 412.77 264.291 416.593 292.034C401.459 290.818 371.192 281.813 371.192 255.53Z" fill="#725CFF"/>
<path d="M371.192 222.677C357.652 223.285 329.615 231.438 325.792 259.181C340.925 257.964 371.192 248.96 371.192 222.677Z" fill="#725CFF"/>
<path d="M371.192 255.53C357.652 256.139 329.615 264.291 325.792 292.034C340.925 290.818 371.192 281.813 371.192 255.53Z" fill="#725CFF"/>
<path d="M705.721 200.775L784.575 167.921V91.2627L705.721 131.417V200.775Z" fill="#4C35DE"/>
<path d="M705.721 200.775L626.868 167.921V91.2627L705.721 131.417V200.775Z" fill="#01B6DA"/>
<path d="M657.991 78.4864H751.621M640.207 85.7872H771.629M771.629 85.7872L784.575 91.2629L780.745 93.1847M771.629 85.7872L735.626 70.5598M631.576 93.6965L626.868 91.2629L677.3 70.5598M631.576 93.6965L780.745 93.1847M631.576 93.6965L673.945 115.599M780.745 93.1847L766.386 100.389M766.386 100.389H644.522M766.386 100.389L736.072 115.599M658.645 107.69H751.621M673.945 115.599H736.072M673.945 115.599L690.422 124.117M736.072 115.599L704.545 131.417L690.422 124.117M690.422 124.117H718.668M677.3 70.5598L706.898 58.4092L735.626 70.5598M677.3 70.5598H735.626M699.837 62.0596H713.96" stroke="url(#paint1_linear_1511_2221)" stroke-width="1.8252"/>
<path d="M863.427 81.0069L839.532 91.4367L863.427 103.605M863.427 112.296L822.806 91.4367L863.427 74.0538M863.427 65.3623L803.69 91.4367L863.427 122.726M865.817 58.4092V131.417L784.574 91.4367L865.817 58.4092Z" stroke="url(#paint2_linear_1511_2221)" stroke-width="1.8252"/>
<path d="M739.174 0.00292969H705.721V58.4095L784.575 91.2631V23.7306L739.174 0.00292969Z" fill="#A94ED8"/>
<path d="M829.974 0.00292969H865.816V57.8958L784.574 91.2631V23.7306L829.974 0.00292969Z" fill="#4C35DE"/>
<path d="M340.129 54.7588H335.35V58.4092H330.571V62.0596H325.792V65.71H321.013V69.3604H316.234V73.0108H321.013V76.6612H325.792V80.3116H330.571V83.9621H335.35V87.6125H340.129V54.7588Z" fill="#01B6DA"/>
<path d="M392.698 54.7588H397.477V58.4092H402.256V62.0596H407.035V65.71H411.814V69.3604H416.593V73.0108H411.814V76.6612H407.035V80.3116H402.256V83.9621H397.477V87.6125H392.698V54.7588Z" fill="#01B6DA"/>
<path d="M340.129 54.7588H344.908V58.4092H349.687V62.0596H354.466V65.71H359.245V69.3604H364.024V73.0108H359.245V76.6612H354.466V80.3116H349.687V83.9621H344.908V87.6125H340.129V54.7588Z" fill="#1B00C5"/>
<path d="M392.698 54.7588H387.919V58.4092H383.14V62.0596H378.361V65.71H373.582V69.3604H368.803V73.0108H373.582V76.6612H378.361V80.3116H383.14V83.9621H387.919V87.6125H392.698V54.7588Z" fill="#1B00C5"/>
<path d="M278.002 0.00292969C178.035 1.46293 143.956 67.5279 139.412 100.378V222.653C221.203 224.113 265.885 161.211 278.002 129.578V0.00292969Z" fill="#1B00C5"/>
<path d="M0.820786 0.00292969C100.788 1.46293 134.868 67.5279 139.412 100.378V222.653C57.6203 224.113 12.938 164.876 0.820786 133.243V0.00292969Z" fill="#4C35DE"/>
<rect x="316.234" y="113.165" width="215.055" height="7.30082" fill="#1B00C5"/>
<rect x="316.234" y="178.873" width="152.928" height="7.30082" fill="#1B00C5"/>
<path d="M705.722 0.00292969H674.658L626.868 20.0802V91.9074L705.722 58.4095V0.00292969Z" fill="#4C35DE"/>
<rect x="316.234" y="127.767" width="215.055" height="10.9512" fill="#1B00C5"/>
<rect x="316.234" y="138.718" width="4.778" height="14.6016" fill="#BBB1FF"/>
<rect x="411.813" y="138.718" width="4.778" height="14.6016" fill="#BBB1FF"/>
<rect x="364.024" y="138.718" width="4.778" height="14.6016" fill="#BBB1FF"/>
<rect x="454.824" y="138.718" width="4.778" height="14.6016" fill="#1B00C5"/>
<rect x="340.129" y="138.718" width="4.778" height="14.6016" fill="#1B00C5"/>
<rect x="430.93" y="138.718" width="4.778" height="14.6016" fill="#BBB1FF"/>
<rect x="387.919" y="138.718" width="4.778" height="14.6016" fill="#1B00C5"/>
<rect x="478.72" y="138.718" width="4.778" height="14.6016" fill="#BBB1FF"/>
<rect x="502.614" y="138.718" width="4.778" height="14.6016" fill="#1B00C5"/>
<rect x="383.14" y="138.718" width="4.778" height="14.6016" fill="#BBB1FF"/>
<rect x="473.94" y="138.718" width="4.778" height="14.6016" fill="#1B00C5"/>
<rect x="321.014" y="138.718" width="4.778" height="14.6016" fill="#1B00C5"/>
<rect x="416.593" y="138.718" width="4.778" height="14.6016" fill="#1B00C5"/>
<rect x="368.803" y="138.718" width="4.778" height="14.6016" fill="#1B00C5"/>
<rect x="459.604" y="138.718" width="4.778" height="14.6016" fill="#BBB1FF"/>
<rect x="344.908" y="138.718" width="4.778" height="14.6016" fill="#BBB1FF"/>
<rect x="435.708" y="138.718" width="4.778" height="14.6016" fill="#1B00C5"/>
<rect x="392.697" y="138.718" width="4.778" height="14.6016" fill="#BBB1FF"/>
<rect x="483.499" y="138.718" width="4.778" height="14.6016" fill="#1B00C5"/>
<rect x="507.393" y="138.718" width="4.778" height="14.6016" fill="#BBB1FF"/>
<rect x="325.792" y="138.718" width="4.778" height="14.6016" fill="#BBB1FF"/>
<rect x="421.372" y="138.718" width="4.778" height="14.6016" fill="#BBB1FF"/>
<rect x="373.582" y="138.718" width="4.778" height="14.6016" fill="#BBB1FF"/>
<rect x="464.382" y="138.718" width="4.778" height="14.6016" fill="#1B00C5"/>
<rect x="349.687" y="138.718" width="4.778" height="14.6016" fill="#1B00C5"/>
<rect x="440.488" y="138.718" width="4.778" height="14.6016" fill="#BBB1FF"/>
<rect x="397.477" y="138.718" width="4.778" height="14.6016" fill="#1B00C5"/>
<rect x="488.277" y="138.718" width="4.778" height="14.6016" fill="#BBB1FF"/>
<rect x="512.172" y="138.718" width="4.778" height="14.6016" fill="#1B00C5"/>
<rect x="330.571" y="138.718" width="4.778" height="14.6016" fill="#1B00C5"/>
<rect x="378.361" y="138.718" width="4.778" height="14.6016" fill="#1B00C5"/>
<rect x="469.162" y="138.718" width="4.778" height="14.6016" fill="#BBB1FF"/>
<rect x="354.466" y="138.718" width="4.778" height="14.6016" fill="#BBB1FF"/>
<rect x="445.267" y="138.718" width="4.778" height="14.6016" fill="#1B00C5"/>
<rect x="402.256" y="138.718" width="4.778" height="14.6016" fill="#BBB1FF"/>
<rect x="493.056" y="138.718" width="4.778" height="14.6016" fill="#1B00C5"/>
<rect x="516.951" y="138.718" width="4.778" height="14.6016" fill="#BBB1FF"/>
<rect x="335.351" y="138.718" width="4.778" height="14.6016" fill="#BBB1FF"/>
<rect x="426.15" y="138.718" width="4.778" height="14.6016" fill="#1B00C5"/>
<rect x="359.245" y="138.718" width="4.778" height="14.6016" fill="#1B00C5"/>
<rect x="450.045" y="138.718" width="4.778" height="14.6016" fill="#BBB1FF"/>
<rect x="407.035" y="138.718" width="4.778" height="14.6016" fill="#1B00C5"/>
<rect x="497.836" y="138.718" width="4.778" height="14.6016" fill="#BBB1FF"/>
<rect x="521.731" y="138.718" width="4.778" height="14.6016" fill="#1B00C5"/>
<rect x="526.509" y="138.718" width="4.778" height="14.6016" fill="#BBB1FF"/>
<path d="M579.292 111.942L587.124 108.462M579.292 111.942C587.147 114.481 607.57 119.558 626.422 144.308M579.292 111.942V119.558M614.64 96.2356L626.422 91V104.982M614.64 96.2356C617.782 97.0288 624.066 100.519 626.422 104.982M614.64 96.2356L605.214 100.519M626.422 104.982V115.75M605.214 100.519C609.667 100.318 619.353 106.231 626.422 115.75M605.214 100.519L595.788 104.327M626.422 115.75V125.269M595.788 104.327C602.349 105.378 616.996 111.942 626.422 125.269M595.788 104.327L587.124 108.462M626.422 125.269V134.788M587.124 108.462C595.511 110.892 609.927 113.846 626.422 134.788M626.422 134.788V144.308M626.422 144.308V153.827M579.292 119.558C587.933 122.096 609.927 132.885 626.422 153.827M579.292 119.558V129.077M626.422 153.827V165.25M579.292 129.077C587.147 131.615 607.57 142.404 626.422 165.25M579.292 129.077V138.596M626.422 165.25V169.058L620.477 171.699M579.292 138.596C587.112 141.627 607.57 151.923 620.477 171.699M579.292 138.596V150.019M620.477 171.699L609.927 176.673M579.292 150.019C586.719 152.558 603.757 161.442 609.927 176.673M579.292 150.019V161.442M609.927 176.673L600.501 180.576M579.292 161.442C584.005 163.41 594.845 169.991 600.501 180.576M579.292 161.442V171.699M600.501 180.576L579.292 190V171.699M579.292 171.699C582.434 172.723 588.718 178.577 591.075 184.288" stroke="url(#paint3_linear_1511_2221)" stroke-width="1.8252"/>
<path d="M579.078 71.9576L587.02 75.1656M579.078 71.9576C587.043 69.6176 607.752 64.9376 626.868 42.1226M579.078 71.9576V64.9376M614.921 86.4364L626.868 91.2627V78.3736M614.921 86.4364C618.107 85.7052 624.479 82.4877 626.868 78.3736M614.921 86.4364L605.363 82.4877M626.868 78.3736V68.4476M605.363 82.4877C609.878 82.6736 619.7 77.2227 626.868 68.4476M605.363 82.4877L595.805 78.9777M626.868 68.4476V59.6726M595.805 78.9777C602.458 78.009 617.31 71.9576 626.868 59.6726M595.805 78.9777L587.02 75.1656M626.868 59.6726V50.8976M587.02 75.1656C595.523 72.9263 610.142 70.2026 626.868 50.8976M626.868 50.8976V42.1226M626.868 42.1226V33.3476M579.078 64.9376C587.84 62.5976 610.142 52.6526 626.868 33.3476M579.078 64.9376V56.1626M626.868 33.3476V22.8175M579.078 56.1626C587.043 53.8226 607.752 43.8776 626.868 22.8175M579.078 56.1626V47.3876M626.868 22.8175V19.3075L620.84 16.8723M579.078 47.3876C587.007 44.5941 607.752 35.1026 620.84 16.8723M579.078 47.3876V36.8576M620.84 16.8723L610.142 12.2875M579.078 36.8576C586.609 34.5176 603.885 26.3275 610.142 12.2875M579.078 36.8576V26.3275M610.142 12.2875L600.584 8.68975M579.078 26.3275C583.857 24.514 594.849 18.4476 600.584 8.68975M579.078 26.3275V16.8723M600.584 8.68975L579.078 0.0024786V16.8723M579.078 16.8723C582.264 15.929 588.636 10.5325 591.026 5.26749" stroke="url(#paint4_linear_1511_2221)" stroke-width="1.8252"/>
<path d="M865.817 204.425V131.417L784.574 91.2627V167.921L865.817 204.425Z" fill="#01B6DA"/>
<path d="M674.658 0.00292969H576.688L626.868 20.0802L674.658 0.00292969Z" fill="#01B6DA"/>
<path d="M829.975 0.00292969H739.174L784.574 23.7306L829.975 0.00292969Z" fill="#01B6DA"/>
<path d="M667.49 222.677L705.721 200.775L626.868 167.921L579.078 189.823V222.677H667.49Z" fill="#A94ED8"/>
<path d="M746.342 222.677L705.72 200.775L784.832 167.5L834.753 189.823L865.816 204.425L827.584 222.677H746.342Z" fill="#A94ED8"/>
<path d="M667.489 222.678L705.721 200.775L746.343 222.678H667.489Z" fill="#01B6DA"/>
<path d="M865.818 222.678V204.426L827.586 222.678H865.818Z" fill="#01B6DA"/>
<path d="M91.6222 262.832L137.148 298.424H46.0961L91.6222 262.832Z" fill="#A94ED8"/>
<path d="M91.6222 299.336L137.148 334.927H46.0961L91.6222 299.336Z" fill="#A94ED8"/>
<rect x="493.056" y="266.48" width="9.55799" height="18.252" fill="#725CFF"/>
<rect x="493.056" y="302.986" width="9.55799" height="18.252" fill="#725CFF"/>
<rect x="502.614" y="284.734" width="9.55799" height="18.252" fill="#725CFF"/>
<rect x="512.172" y="266.48" width="9.55799" height="18.252" fill="#725CFF"/>
<rect x="512.172" y="302.986" width="9.55799" height="18.252" fill="#725CFF"/>
<rect x="521.731" y="284.734" width="9.55799" height="18.252" fill="#725CFF"/>
<path d="M234.85 432.321L207.738 415.858L224.184 439.013L224.457 439.398L223.985 439.408L189.627 440.103L221.558 449.72L222.062 449.872L221.626 450.167L195.894 467.567L228.604 459.216L228.987 459.118L228.912 459.506L223.802 485.676L241.965 463.053L242.16 462.81L242.355 463.053L260.517 485.676L255.408 459.506L255.332 459.118L255.715 459.216L288.425 467.567L262.693 450.167L262.257 449.872L262.761 449.72L294.693 440.103L260.334 439.408L259.862 439.398L260.136 439.013L276.582 415.858L249.469 432.321L249.184 432.494L249.098 432.172L242.16 406.165L235.222 432.172L235.135 432.494L234.85 432.321Z" fill="url(#paint5_linear_1511_2221)" stroke="#A9A9A9" stroke-width="0.5"/>
<path d="M175.254 456.303V582.242L48.611 456.303H175.254Z" fill="#01B6DA"/>
<path d="M48.6118 582.242V456.303L175.255 582.242H48.6118Z" fill="#06A4C4"/>
<ellipse cx="426.151" cy="441.701" rx="9.55799" ry="7.30082" fill="#A94ED8"/>
<ellipse cx="459.603" cy="441.701" rx="9.55799" ry="7.30082" fill="#A94ED8"/>
<ellipse cx="493.057" cy="441.701" rx="9.55799" ry="7.30082" fill="#A94ED8"/>
<ellipse cx="526.509" cy="441.701" rx="9.55799" ry="7.30082" fill="#A94ED8"/>
<line x1="0.821777" y1="607.794" x2="435.709" y2="607.794" stroke="#4C35DE" stroke-width="3.6504"/>
<line x1="0.821777" y1="622.396" x2="430.93" y2="622.396" stroke="#4C35DE" stroke-width="3.6504"/>
<line x1="0.821777" y1="636.997" x2="426.151" y2="636.997" stroke="#4C35DE" stroke-width="3.6504"/>
<line x1="0.821777" y1="651.599" x2="421.372" y2="651.599" stroke="#4C35DE" stroke-width="3.6504"/>
<path d="M297.118 839.594C305.083 848.111 326.27 860.036 347.298 839.594" stroke="#4C35DE" stroke-width="1.8252"/>
<path d="M297.118 850.545C305.083 859.063 326.27 870.987 347.298 850.545" stroke="#4C35DE" stroke-width="1.8252"/>
<path d="M297.118 861.496C305.083 870.014 326.27 881.938 347.298 861.496" stroke="#4C35DE" stroke-width="1.8252"/>
<path d="M421.373 839.594C429.338 848.111 450.524 860.036 471.552 839.594" stroke="#4C35DE" stroke-width="1.8252"/>
<path d="M421.373 850.543C429.338 859.061 450.524 870.985 471.552 850.543" stroke="#4C35DE" stroke-width="1.8252"/>
<path d="M421.373 861.496C429.338 870.014 450.524 881.938 471.552 861.496" stroke="#4C35DE" stroke-width="1.8252"/>
<path d="M540.847 839.594C548.812 848.111 569.999 860.036 591.027 839.594" stroke="#4C35DE" stroke-width="1.8252"/>
<path d="M540.847 850.543C548.812 859.061 569.999 870.985 591.027 850.543" stroke="#4C35DE" stroke-width="1.8252"/>
<path d="M540.847 861.496C548.812 870.014 569.999 881.938 591.027 861.496" stroke="#4C35DE" stroke-width="1.8252"/>
<path d="M359.245 872.783C367.21 864.266 388.397 852.341 409.425 872.783" stroke="#A94ED8" stroke-width="1.8252"/>
<path d="M359.245 861.832C367.21 853.314 388.397 841.39 409.425 861.832" stroke="#A94ED8" stroke-width="1.8252"/>
<path d="M359.245 850.881C367.21 842.363 388.397 830.439 409.425 850.881" stroke="#A94ED8" stroke-width="1.8252"/>
<path d="M478.719 872.783C486.684 864.266 507.871 852.341 528.898 872.783" stroke="#A94ED8" stroke-width="1.8252"/>
<path d="M478.719 861.832C486.684 853.314 507.871 841.39 528.898 861.832" stroke="#A94ED8" stroke-width="1.8252"/>
<path d="M478.719 850.881C486.684 842.363 507.871 830.439 528.898 850.881" stroke="#A94ED8" stroke-width="1.8252"/>
<rect x="779.795" y="792.141" width="9.55799" height="7.30082" fill="#A94ED8"/>
<rect x="798.912" y="792.141" width="4.778" height="7.30082" fill="#01B6DA"/>
<rect x="813.249" y="792.141" width="9.55799" height="7.30082" fill="#A94ED8"/>
<rect x="832.365" y="792.141" width="4.778" height="7.30082" fill="#01B6DA"/>
<rect x="779.795" y="835.943" width="9.55799" height="7.30082" fill="#A94ED8"/>
<rect x="798.912" y="835.943" width="4.778" height="7.30082" fill="#01B6DA"/>
<rect x="813.249" y="835.943" width="9.55799" height="7.30082" fill="#A94ED8"/>
<rect x="832.365" y="835.943" width="4.778" height="7.30082" fill="#01B6DA"/>
<rect x="779.795" y="814.043" width="9.55799" height="7.30082" fill="#A94ED8"/>
<rect x="798.912" y="814.043" width="4.778" height="7.30082" fill="#01B6DA"/>
<rect x="813.249" y="814.043" width="9.55799" height="7.30082" fill="#A94ED8"/>
<rect x="832.365" y="814.043" width="4.778" height="7.30082" fill="#01B6DA"/>
<rect x="779.795" y="857.846" width="9.55799" height="7.30082" fill="#A94ED8"/>
<rect x="798.912" y="857.846" width="4.778" height="7.30082" fill="#01B6DA"/>
<rect x="813.249" y="857.846" width="9.55799" height="7.30082" fill="#A94ED8"/>
<rect x="832.365" y="857.846" width="4.778" height="7.30082" fill="#01B6DA"/>
<rect x="779.795" y="803.09" width="9.55799" height="7.30082" fill="#A94ED8"/>
<rect x="798.912" y="803.09" width="4.778" height="7.30082" fill="#01B6DA"/>
<rect x="813.249" y="803.09" width="9.55799" height="7.30082" fill="#A94ED8"/>
<rect x="832.365" y="803.09" width="4.778" height="7.30082" fill="#01B6DA"/>
<rect x="779.795" y="846.895" width="9.55799" height="7.30082" fill="#A94ED8"/>
<rect x="798.912" y="846.895" width="4.778" height="7.30082" fill="#01B6DA"/>
<rect x="813.249" y="846.895" width="9.55799" height="7.30082" fill="#A94ED8"/>
<rect x="832.365" y="846.895" width="4.778" height="7.30082" fill="#01B6DA"/>
<rect x="779.795" y="824.992" width="9.55799" height="7.30082" fill="#A94ED8"/>
<rect x="798.912" y="824.992" width="4.778" height="7.30082" fill="#01B6DA"/>
<rect x="813.249" y="824.992" width="9.55799" height="7.30082" fill="#A94ED8"/>
<rect x="832.365" y="824.992" width="4.778" height="7.30082" fill="#01B6DA"/>
<rect x="779.795" y="868.797" width="9.55799" height="7.30082" fill="#A94ED8"/>
<rect x="798.912" y="868.797" width="4.778" height="7.30082" fill="#01B6DA"/>
<rect x="813.249" y="868.797" width="9.55799" height="7.30082" fill="#A94ED8"/>
<rect x="832.365" y="868.797" width="4.778" height="7.30082" fill="#01B6DA"/>
<rect x="779.795" y="879.748" width="9.55799" height="7.30082" fill="#A94ED8"/>
<rect x="798.912" y="879.748" width="4.778" height="7.30082" fill="#01B6DA"/>
<rect x="813.249" y="879.748" width="9.55799" height="7.30082" fill="#A94ED8"/>
<rect x="832.365" y="879.748" width="4.778" height="7.30082" fill="#01B6DA"/>
<path d="M585.797 522C454.718 531.185 420.366 629.16 419.574 677H866V522H585.797Z" stroke="black" stroke-width="3.6504"/>
<path d="M593.416 824.933C450.057 827.781 415.811 728.222 416.607 678.977H593.416V824.933Z" fill="#4C35DE"/>
<path d="M593.415 824.933C736.774 827.781 771.02 728.222 770.223 678.977H593.415V824.933Z" fill="#01B6DA"/>
</g>
<defs>
<linearGradient id="paint0_linear_1511_2221" x1="3.15739" y1="855.229" x2="66.783" y2="823.166" gradientUnits="userSpaceOnUse">
<stop stop-color="#01B6DA"/>
<stop offset="1" stop-color="#4C35DE"/>
</linearGradient>
<linearGradient id="paint1_linear_1511_2221" x1="631.034" y1="85.177" x2="715.177" y2="15.214" gradientUnits="userSpaceOnUse">
<stop stop-color="#01B6DA"/>
<stop offset="1" stop-color="#4C35DE"/>
</linearGradient>
<linearGradient id="paint2_linear_1511_2221" x1="786.72" y1="85.177" x2="848.668" y2="58.6422" gradientUnits="userSpaceOnUse">
<stop stop-color="#01B6DA"/>
<stop offset="1" stop-color="#4C35DE"/>
</linearGradient>
<linearGradient id="paint3_linear_1511_2221" x1="580.538" y1="127.297" x2="621.686" y2="119.757" gradientUnits="userSpaceOnUse">
<stop stop-color="#01B6DA"/>
<stop offset="1" stop-color="#4C35DE"/>
</linearGradient>
<linearGradient id="paint4_linear_1511_2221" x1="580.341" y1="57.803" x2="621.783" y2="66.1565" gradientUnits="userSpaceOnUse">
<stop stop-color="#01B6DA"/>
<stop offset="1" stop-color="#4C35DE"/>
</linearGradient>
<linearGradient id="paint5_linear_1511_2221" x1="294.214" y1="435.978" x2="215.112" y2="396.116" gradientUnits="userSpaceOnUse">
<stop stop-color="#01B6DA"/>
<stop offset="1" stop-color="#4C35DE"/>
</linearGradient>
<clipPath id="clip0_1511_2221">
<rect width="865.359" height="898.001" fill="white" transform="translate(0.640625)"/>
</clipPath>
</defs>
</svg>
